<?xml version="1.0" encoding="utf-8"?>

<svg version="1.1" id="Calque_1" xmlns="http://www.w3.org/2000/svg" xmlns:xlink="http://www.w3.org/1999/xlink" x="0px" y="0px"
	 width="5669.29px" height="2749.61px" viewBox="0 0 5669.29 2749.61" enable-background="new 0 0 5669.29 2749.61"
	 xml:space="preserve">
<rect x="350" y="219" fill="#EC5F58" width="2508" height="2264"/>
<path fill="#167B57" d="M2466.534,1221.962l34.051,47.659c0,0-590.198,292.457-605.34,301.993c-3.197,2.014-4.011,6.979-6.98,15.271
	s-71.236,44.419-78.536,36.938s-1.684-10.759-6.274-12.277c-28.19-9.325-634.027,305.193-634.027,305.193l-544.51-685.087
	l24.182-26.602"/>
<g>
	<path d="M1874.049,1597.688"/>
</g>
<path fill="#FFFFFF" stroke="#167B57" stroke-width="7" stroke-miterlimit="10" d="M1847.228,1596.372
	c59.821-78.38,196.991-175.568,326.808-231.068c138.304-59.128,315.558-115.154,315.558-115.154l-22.729-22.216l-353.296-34.626
	l-138.733,186.548l-132.35,206.164L1847.228,1596.372z"/>
<g>
	<path d="M1872.049,1615.012"/>
</g>
<line fill="none" stroke="#167B57" stroke-width="7" stroke-linejoin="bevel" stroke-miterlimit="10" x1="1890.847" y1="1572.285" x2="1872.993" y2="1586.02"/>
<path fill="#FFFFFF" stroke="#167B57" stroke-width="7" stroke-linejoin="bevel" stroke-miterlimit="10" d="M1271,875.479
	c0,0-137.198-7.05-214,27.521c-221.185,99.564-371.777,246.479-428.299,246.479s539.13,734.783,539.13,734.783
	s249.115-226.933,426.354-282.479c241.011-75.532,257.643,4.46,257.643,4.46"/>
<path fill="#FFFFFF" stroke="#167B57" stroke-width="7" stroke-linecap="round" stroke-miterlimit="10" d="M1847.228,1596.372
	L1271,875.479c0,0,387.859-238.867,590.726-317.527l621.834,663.587c0,0-68.241,22.842-126.523,44.428
	c-132.705,49.15-425.359,141.518-512.97,336.99"/>
<path fill="#167B57" d="M1271,875.479c0,0,15.751-73.922,29-208.479c13.324-135.327,37-340,37-340l600,692
	c0,0-25.338,125.944-46.107,261.212s-42.265,314.338-42.265,314.338"/>
<path fill="#FFFFFF" d="M1708.091,813.822c-2.345-2.469-5.396-1.837-7.776-5.221s-1.846-9.854-5.774-13.991
	c-6.913-7.275-17.275-8.651-23.147-3.072c-5.874,5.578-5.034,15.999,1.878,23.274c3.962,4.171,10.483,3.762,13.793,6.486
	c3.309,2.724,2.47,5.505,4.791,7.949c6.05,6.37,14.59,8.082,19.074,3.822C1715.413,828.81,1714.142,820.193,1708.091,813.822z"/>
<rect x="2923.752" y="219" fill="#167B57" width="2508" height="2264"/>
<path fill="#EC5F58" stroke="#EB5F58" stroke-miterlimit="10" d="M5040.286,1221.963l34.051,47.658
	c0,0-590.198,292.457-605.34,301.993c-3.197,2.014-4.011,6.979-6.979,15.271s-71.236,44.419-78.536,36.938
	s-1.684-10.759-6.274-12.277c-28.189-9.325-634.026,305.193-634.026,305.193l-544.511-685.087l24.183-26.602"/>
<g>
	<path d="M4447.801,1597.688"/>
</g>
<path fill="#FFFFFF" stroke="#EB5F58" stroke-width="7" stroke-miterlimit="10" d="M4420.979,1596.372
	c59.821-78.38,196.991-175.568,326.808-231.068c138.304-59.128,315.558-115.153,315.558-115.153l-22.729-22.217l-353.296-34.627
	l-138.733,186.549l-132.35,206.164L4420.979,1596.372z"/>
<g>
	<path d="M4445.801,1615.012"/>
</g>
<line fill="none" stroke="#167B57" stroke-width="7" stroke-linejoin="bevel" stroke-miterlimit="10" x1="4380.453" y1="1632.873" x2="4365.48" y2="1621.495"/>
<path fill="#FFFFFF" stroke="#EB5F58" stroke-width="7" stroke-linejoin="bevel" stroke-miterlimit="10" d="M3844.752,875.479
	c0,0-137.198-7.05-214,27.521c-221.185,99.564-371.777,246.479-428.299,246.479c-56.522,0,539.129,734.783,539.129,734.783
	s249.115-226.933,426.354-282.479c241.011-75.532,257.644,4.46,257.644,4.46"/>
<path fill="#FFFFFF" stroke="#EB5F58" stroke-width="7" stroke-linecap="round" stroke-miterlimit="10" d="M4420.979,1596.372
	l-576.228-720.894c0,0,387.859-238.867,590.726-317.527l621.834,663.587c0,0-68.241,22.842-126.523,44.428
	c-132.705,49.15-425.358,141.519-512.97,336.99"/>
<path fill="#EC5F58" d="M3844.752,875.479c0,0,15.752-73.922,29-208.479c13.324-135.327,37-340,37-340l600,692
	c0,0-25.338,125.944-46.107,261.212s-42.265,314.338-42.265,314.338"/>
<path fill="#FFFFFF" d="M4281.843,813.822c-2.345-2.469-5.396-1.837-7.776-5.221s-1.846-9.854-5.774-13.991
	c-6.913-7.275-17.275-8.651-23.147-3.072c-5.874,5.578-5.034,15.999,1.878,23.274c3.962,4.171,10.483,3.762,13.793,6.486
	s2.47,5.505,4.791,7.949c6.05,6.37,14.59,8.082,19.073,3.822C4289.164,828.81,4287.894,820.193,4281.843,813.822z"/>
<text transform="matrix(1 0 0 1 3079 2393.4082)" fill="#FFFFFF" font-family="'Bliss-Bold'" font-size="477.4476">Bookdoor</text>
<text transform="matrix(1 0 0 1 532 2390.4082)" fill="#FFFFFF" font-family="'Bliss-Bold'" font-size="477.4476">Bookdoor</text>
</svg>
